<svg id="visual" viewBox="0 0 1960 1040" width="1960" height="1040" xmlns="http://www.w3.org/2000/svg" xmlns:xlink="http://www.w3.org/1999/xlink" version="1.1"><rect x="0" y="0" width="1960" height="1040" fill="#f7bdbd"></rect><defs><linearGradient id="grad1_0" x1="46.9%" y1="0%" x2="100%" y2="100%"><stop offset="12.30769230769231%" stop-color="#d21f3c" stop-opacity="1"></stop><stop offset="87.6923076923077%" stop-color="#d21f3c" stop-opacity="1"></stop></linearGradient></defs><defs><linearGradient id="grad1_1" x1="46.9%" y1="0%" x2="100%" y2="100%"><stop offset="12.30769230769231%" stop-color="#d21f3c" stop-opacity="1"></stop><stop offset="87.6923076923077%" stop-color="#ea787b" stop-opacity="1"></stop></linearGradient></defs><defs><linearGradient id="grad1_2" x1="46.9%" y1="0%" x2="100%" y2="100%"><stop offset="12.30769230769231%" stop-color="#f7bdbd" stop-opacity="1"></stop><stop offset="87.6923076923077%" stop-color="#ea787b" stop-opacity="1"></stop></linearGradient></defs><defs><linearGradient id="grad2_0" x1="0%" y1="0%" x2="53.1%" y2="100%"><stop offset="12.30769230769231%" stop-color="#d21f3c" stop-opacity="1"></stop><stop offset="87.6923076923077%" stop-color="#d21f3c" stop-opacity="1"></stop></linearGradient></defs><defs><linearGradient id="grad2_1" x1="0%" y1="0%" x2="53.1%" y2="100%"><stop offset="12.30769230769231%" stop-color="#ea787b" stop-opacity="1"></stop><stop offset="87.6923076923077%" stop-color="#d21f3c" stop-opacity="1"></stop></linearGradient></defs><defs><linearGradient id="grad2_2" x1="0%" y1="0%" x2="53.1%" y2="100%"><stop offset="12.30769230769231%" stop-color="#ea787b" stop-opacity="1"></stop><stop offset="87.6923076923077%" stop-color="#f7bdbd" stop-opacity="1"></stop></linearGradient></defs><g transform="translate(1960, 0)"><path d="M0 676C-54.8 579 -109.6 482 -188.7 455.5C-267.7 428.9 -371 472.9 -451.8 451.8C-532.6 430.8 -590.9 344.8 -624.5 258.7C-658.2 172.6 -667.1 86.3 -676 0L0 0Z" fill="#f29b9c"></path><path d="M0 450.7C-36.5 386 -73.1 321.3 -125.8 303.6C-178.5 286 -247.4 315.2 -301.2 301.2C-355.1 287.2 -394 229.9 -416.4 172.5C-438.8 115 -444.7 57.5 -450.7 0L0 0Z" fill="#df535b"></path><path d="M0 225.3C-18.3 193 -36.5 160.7 -62.9 151.8C-89.2 143 -123.7 157.6 -150.6 150.6C-177.5 143.6 -197 114.9 -208.2 86.2C-219.4 57.5 -222.4 28.8 -225.3 0L0 0Z" fill="#d21f3c"></path></g><g transform="translate(0, 1040)"><path d="M0 -676C85.4 -667.3 170.8 -658.6 258.7 -624.5C346.6 -590.5 437.1 -531.1 444.8 -444.8C452.4 -358.4 377.2 -245.1 401.9 -166.5C426.6 -87.8 551.3 -43.9 676 0L0 0Z" fill="#f29b9c"></path><path d="M0 -450.7C56.9 -444.9 113.8 -439.1 172.5 -416.4C231.1 -393.7 291.4 -354.1 296.5 -296.5C301.6 -238.9 251.4 -163.4 267.9 -111C284.4 -58.6 367.5 -29.3 450.7 0L0 0Z" fill="#df535b"></path><path d="M0 -225.3C28.5 -222.4 56.9 -219.5 86.2 -208.2C115.5 -196.8 145.7 -177 148.3 -148.3C150.8 -119.5 125.7 -81.7 134 -55.5C142.2 -29.3 183.8 -14.6 225.3 0L0 0Z" fill="#d21f3c"></path></g></svg>