<svg id="visual" viewBox="0 0 900 600" width="900" height="600" xmlns="http://www.w3.org/2000/svg" xmlns:xlink="http://www.w3.org/1999/xlink" version="1.1"><rect x="0" y="0" width="900" height="600" fill="#FFEDED"></rect><path d="M0 315L18.8 338.5C37.7 362 75.3 409 112.8 409.2C150.3 409.3 187.7 362.7 225.2 359.5C262.7 356.3 300.3 396.7 337.8 422C375.3 447.3 412.7 457.7 450.2 463C487.7 468.3 525.3 468.7 562.8 448C600.3 427.3 637.7 385.7 675.2 377C712.7 368.3 750.3 392.7 787.8 395.5C825.3 398.3 862.7 379.7 881.3 370.3L900 361L900 601L881.3 601C862.7 601 825.3 601 787.8 601C750.3 601 712.7 601 675.2 601C637.7 601 600.3 601 562.8 601C525.3 601 487.7 601 450.2 601C412.7 601 375.3 601 337.8 601C300.3 601 262.7 601 225.2 601C187.7 601 150.3 601 112.8 601C75.3 601 37.7 601 18.8 601L0 601Z" fill="#e9c5cb"></path><path d="M0 507L18.8 503.2C37.7 499.3 75.3 491.7 112.8 495.5C150.3 499.3 187.7 514.7 225.2 523.8C262.7 533 300.3 536 337.8 525C375.3 514 412.7 489 450.2 466.3C487.7 443.7 525.3 423.3 562.8 417.7C600.3 412 637.7 421 675.2 431.7C712.7 442.3 750.3 454.7 787.8 465.5C825.3 476.3 862.7 485.7 881.3 490.3L900 495L900 601L881.3 601C862.7 601 825.3 601 787.8 601C750.3 601 712.7 601 675.2 601C637.7 601 600.3 601 562.8 601C525.3 601 487.7 601 450.2 601C412.7 601 375.3 601 337.8 601C300.3 601 262.7 601 225.2 601C187.7 601 150.3 601 112.8 601C75.3 601 37.7 601 18.8 601L0 601Z" fill="#eeb2bc"></path><path d="M0 581L18.8 580.7C37.7 580.3 75.3 579.7 112.8 568.7C150.3 557.7 187.7 536.3 225.2 537C262.7 537.7 300.3 560.3 337.8 572C375.3 583.7 412.7 584.3 450.2 571.3C487.7 558.3 525.3 531.7 562.8 520.5C600.3 509.3 637.7 513.7 675.2 527.7C712.7 541.7 750.3 565.3 787.8 564.5C825.3 563.7 862.7 538.3 881.3 525.7L900 513L900 601L881.3 601C862.7 601 825.3 601 787.8 601C750.3 601 712.7 601 675.2 601C637.7 601 600.3 601 562.8 601C525.3 601 487.7 601 450.2 601C412.7 601 375.3 601 337.8 601C300.3 601 262.7 601 225.2 601C187.7 601 150.3 601 112.8 601C75.3 601 37.7 601 18.8 601L0 601Z" fill="#f19eac"></path></svg>