<svg id="visual" viewBox="0 0 900 600" width="900" height="600" xmlns="http://www.w3.org/2000/svg" xmlns:xlink="http://www.w3.org/1999/xlink" version="1.1"><rect x="0" y="0" width="900" height="600" fill="#fcbebe"></rect><path d="M0 442L21.5 427.7C43 413.3 86 384.7 128.8 373.8C171.7 363 214.3 370 257.2 374.3C300 378.7 343 380.3 385.8 378.3C428.7 376.3 471.3 370.7 514.2 379.7C557 388.7 600 412.3 642.8 419.5C685.7 426.7 728.3 417.3 771.2 405.2C814 393 857 378 878.5 370.5L900 363L900 601L878.5 601C857 601 814 601 771.2 601C728.3 601 685.7 601 642.8 601C600 601 557 601 514.2 601C471.3 601 428.7 601 385.8 601C343 601 300 601 257.2 601C214.3 601 171.7 601 128.8 601C86 601 43 601 21.5 601L0 601Z" fill="#e996a4"></path><path d="M0 430L21.5 433.7C43 437.3 86 444.7 128.8 450C171.7 455.3 214.3 458.7 257.2 449.3C300 440 343 418 385.8 411.7C428.7 405.3 471.3 414.7 514.2 416C557 417.3 600 410.7 642.8 407.3C685.7 404 728.3 404 771.2 412.8C814 421.7 857 439.3 878.5 448.2L900 457L900 601L878.5 601C857 601 814 601 771.2 601C728.3 601 685.7 601 642.8 601C600 601 557 601 514.2 601C471.3 601 428.7 601 385.8 601C343 601 300 601 257.2 601C214.3 601 171.7 601 128.8 601C86 601 43 601 21.5 601L0 601Z" fill="#e3808f"></path><path d="M0 450L21.5 450.3C43 450.7 86 451.3 128.8 460.8C171.7 470.3 214.3 488.7 257.2 497.8C300 507 343 507 385.8 503.5C428.7 500 471.3 493 514.2 484.5C557 476 600 466 642.8 463.2C685.7 460.3 728.3 464.7 771.2 472.5C814 480.3 857 491.7 878.5 497.3L900 503L900 601L878.5 601C857 601 814 601 771.2 601C728.3 601 685.7 601 642.8 601C600 601 557 601 514.2 601C471.3 601 428.7 601 385.8 601C343 601 300 601 257.2 601C214.3 601 171.7 601 128.8 601C86 601 43 601 21.5 601L0 601Z" fill="#dc697a"></path><path d="M0 521L21.5 524.3C43 527.7 86 534.3 128.8 531.3C171.7 528.3 214.3 515.7 257.2 510C300 504.3 343 505.7 385.8 508.3C428.7 511 471.3 515 514.2 512.2C557 509.3 600 499.7 642.8 498.3C685.7 497 728.3 504 771.2 502.7C814 501.3 857 491.7 878.5 486.8L900 482L900 601L878.5 601C857 601 814 601 771.2 601C728.3 601 685.7 601 642.8 601C600 601 557 601 514.2 601C471.3 601 428.7 601 385.8 601C343 601 300 601 257.2 601C214.3 601 171.7 601 128.8 601C86 601 43 601 21.5 601L0 601Z" fill="#d45165"></path><path d="M0 554L21.5 555.5C43 557 86 560 128.8 559C171.7 558 214.3 553 257.2 548.8C300 544.7 343 541.3 385.8 539.3C428.7 537.3 471.3 536.7 514.2 542.3C557 548 600 560 642.8 562.8C685.7 565.7 728.3 559.3 771.2 557C814 554.7 857 556.3 878.5 557.2L900 558L900 601L878.5 601C857 601 814 601 771.2 601C728.3 601 685.7 601 642.8 601C600 601 557 601 514.2 601C471.3 601 428.7 601 385.8 601C343 601 300 601 257.2 601C214.3 601 171.7 601 128.8 601C86 601 43 601 21.5 601L0 601Z" fill="#cb364f"></path></svg>